<svg id="visual" viewBox="0 0 900 600" width="900" height="600" xmlns="http://www.w3.org/2000/svg" xmlns:xlink="http://www.w3.org/1999/xlink" version="1.1"><path d="M0 79L64 79L64 55L129 55L129 61L193 61L193 79L257 79L257 61L321 61L321 61L386 61L386 67L450 67L450 61L514 61L514 61L579 61L579 73L643 73L643 67L707 67L707 73L771 73L771 67L836 67L836 73L900 73L900 67L900 0L900 0L836 0L836 0L771 0L771 0L707 0L707 0L643 0L643 0L579 0L579 0L514 0L514 0L450 0L450 0L386 0L386 0L321 0L321 0L257 0L257 0L193 0L193 0L129 0L129 0L64 0L64 0L0 0Z" fill="#6972fa"></path><path d="M0 163L64 163L64 127L129 127L129 145L193 145L193 169L257 169L257 133L321 133L321 139L386 139L386 145L450 145L450 133L514 133L514 151L579 151L579 145L643 145L643 145L707 145L707 157L771 157L771 163L836 163L836 169L900 169L900 139L900 65L900 71L836 71L836 65L771 65L771 71L707 71L707 65L643 65L643 71L579 71L579 59L514 59L514 59L450 59L450 65L386 65L386 59L321 59L321 59L257 59L257 77L193 77L193 59L129 59L129 53L64 53L64 77L0 77Z" fill="#8585fb"></path><path d="M0 301L64 301L64 277L129 277L129 253L193 253L193 289L257 289L257 271L321 271L321 247L386 247L386 271L450 271L450 259L514 259L514 289L579 289L579 301L643 301L643 289L707 289L707 277L771 277L771 295L836 295L836 313L900 313L900 277L900 137L900 167L836 167L836 161L771 161L771 155L707 155L707 143L643 143L643 143L579 143L579 149L514 149L514 131L450 131L450 143L386 143L386 137L321 137L321 131L257 131L257 167L193 167L193 143L129 143L129 125L64 125L64 161L0 161Z" fill="#9d98fd"></path><path d="M0 337L64 337L64 325L129 325L129 295L193 295L193 325L257 325L257 319L321 319L321 289L386 289L386 313L450 313L450 295L514 295L514 325L579 325L579 343L643 343L643 325L707 325L707 313L771 313L771 343L836 343L836 361L900 361L900 325L900 275L900 311L836 311L836 293L771 293L771 275L707 275L707 287L643 287L643 299L579 299L579 287L514 287L514 257L450 257L450 269L386 269L386 245L321 245L321 269L257 269L257 287L193 287L193 251L129 251L129 275L64 275L64 299L0 299Z" fill="#b3acfe"></path><path d="M0 379L64 379L64 361L129 361L129 337L193 337L193 373L257 373L257 373L321 373L321 337L386 337L386 361L450 361L450 349L514 349L514 373L579 373L579 391L643 391L643 379L707 379L707 349L771 349L771 385L836 385L836 403L900 403L900 373L900 323L900 359L836 359L836 341L771 341L771 311L707 311L707 323L643 323L643 341L579 341L579 323L514 323L514 293L450 293L450 311L386 311L386 287L321 287L321 317L257 317L257 323L193 323L193 293L129 293L129 323L64 323L64 335L0 335Z" fill="#c7c0fe"></path><path d="M0 523L64 523L64 517L129 517L129 511L193 511L193 511L257 511L257 517L321 517L321 511L386 511L386 511L450 511L450 505L514 505L514 505L579 505L579 517L643 517L643 499L707 499L707 493L771 493L771 505L836 505L836 511L900 511L900 523L900 371L900 401L836 401L836 383L771 383L771 347L707 347L707 377L643 377L643 389L579 389L579 371L514 371L514 347L450 347L450 359L386 359L386 335L321 335L321 371L257 371L257 371L193 371L193 335L129 335L129 359L64 359L64 377L0 377Z" fill="#dad5ff"></path><path d="M0 571L64 571L64 571L129 571L129 559L193 559L193 571L257 571L257 565L321 565L321 571L386 571L386 571L450 571L450 571L514 571L514 559L579 559L579 559L643 559L643 559L707 559L707 559L771 559L771 571L836 571L836 565L900 565L900 565L900 521L900 509L836 509L836 503L771 503L771 491L707 491L707 497L643 497L643 515L579 515L579 503L514 503L514 503L450 503L450 509L386 509L386 509L321 509L321 515L257 515L257 509L193 509L193 509L129 509L129 515L64 515L64 521L0 521Z" fill="#edeaff"></path><path d="M0 601L64 601L64 601L129 601L129 601L193 601L193 601L257 601L257 601L321 601L321 601L386 601L386 601L450 601L450 601L514 601L514 601L579 601L579 601L643 601L643 601L707 601L707 601L771 601L771 601L836 601L836 601L900 601L900 601L900 563L900 563L836 563L836 569L771 569L771 557L707 557L707 557L643 557L643 557L579 557L579 557L514 557L514 569L450 569L450 569L386 569L386 569L321 569L321 563L257 563L257 569L193 569L193 557L129 557L129 569L64 569L64 569L0 569Z" fill="#ffffff"></path></svg>